<mxfile host="65bd71144e">
    <diagram id="2HNARRYLcsATdymZmVL_" name="Page-1">
        <mxGraphModel dx="1074" dy="741" grid="1" gridSize="10" guides="1" tooltips="1" connect="1" arrows="1" fold="1" page="1" pageScale="1" pageWidth="850" pageHeight="1100" math="0" shadow="0">
            <root>
                <mxCell id="0"/>
                <mxCell id="1" parent="0"/>
                <mxCell id="2" value="" style="rounded=0;whiteSpace=wrap;html=1;" vertex="1" parent="1">
                    <mxGeometry x="80" y="80" width="680" height="560" as="geometry"/>
                </mxCell>
                <mxCell id="3" value="Calculating Natural Numbers using loop" style="rounded=0;whiteSpace=wrap;html=1;" vertex="1" parent="1">
                    <mxGeometry x="80" y="80" width="680" height="90" as="geometry"/>
                </mxCell>
                <mxCell id="4" value="Formula: Sn=n/2(n+1)" style="text;html=1;align=center;verticalAlign=middle;resizable=0;points=[];autosize=1;strokeColor=none;fillColor=none;" vertex="1" parent="1">
                    <mxGeometry x="100" y="190" width="130" height="20" as="geometry"/>
                </mxCell>
                <mxCell id="5" value="Enter number" style="text;html=1;align=center;verticalAlign=middle;resizable=0;points=[];autosize=1;strokeColor=none;fillColor=none;" vertex="1" parent="1">
                    <mxGeometry x="100" y="220" width="90" height="20" as="geometry"/>
                </mxCell>
                <mxCell id="6" value="Pull down menu" style="rounded=0;whiteSpace=wrap;html=1;" vertex="1" parent="1">
                    <mxGeometry x="190" y="220" width="120" height="20" as="geometry"/>
                </mxCell>
                <mxCell id="7" value="Button" style="rounded=0;whiteSpace=wrap;html=1;" vertex="1" parent="1">
                    <mxGeometry x="100" y="260" width="90" height="30" as="geometry"/>
                </mxCell>
                <mxCell id="8" value="The answer is _______" style="text;html=1;align=center;verticalAlign=middle;resizable=0;points=[];autosize=1;strokeColor=none;fillColor=none;" vertex="1" parent="1">
                    <mxGeometry x="100" y="320" width="140" height="20" as="geometry"/>
                </mxCell>
            </root>
        </mxGraphModel>
    </diagram>
</mxfile>